<svg xmlns="http://www.w3.org/2000/svg" viewBox="0 0 383.41 440.85"><defs><style>.cls-1{fill:#875522;}.cls-2{fill:#db8827;}.cls-3{fill:#f26969;}.cls-4{fill:#3d2913;}</style></defs><title>Asset 1</title><g id="Layer_2" data-name="Layer 2"><g id="Layer_1-2" data-name="Layer 1"><path class="cls-1" d="M329.83,11.73C322,16.56,316.64,25.07,312.12,33c4.46-3.36,9.7-5.63,14.83-8.1A32.36,32.36,0,0,1,329.83,11.73Z"/><path class="cls-1" d="M327.76,35.22a52,52,0,0,1-.83-8.62c-5.65,2.49-11.42,4.83-16.13,8.69-2.25,4-4.44,7.89-6.68,11.76A72.92,72.92,0,0,1,319,37.55C321.48,36.37,325,35,327.76,35.22Z"/><path class="cls-1" d="M226.88,134.33h0c-5.5,4.74-11.15,9.57-16.51,14.69C216.34,146.39,222.08,140.1,226.88,134.33Z"/><path class="cls-1" d="M164.73,228.43c.54,5.11-2.1,9.15-4.43,13.52a57.68,57.68,0,0,0-6.4,23.42,71.42,71.42,0,0,0,6.12-7c.37-.44.72-.88,1.09-1.31,1.9-7.86,3.94-15.82,7.13-23.24,3.37-7.84,8.68-14.45,13.48-21.43,1.25-1.81,2.49-4,3.76-6.08-.76.79-1.54,1.56-2.34,2.29-2.87,2.6-6,5-9.64,6a78.35,78.35,0,0,1-9.42,13.15A.74.74,0,0,1,164.73,228.43Z"/><path class="cls-1" d="M146.65,268.74a8.18,8.18,0,0,0,5.45-1.87,59.61,59.61,0,0,1,4.39-20.71c1.48-3.55,3.71-6.7,5.29-10.19,1.72-3.83,2-5.63-.28-5.37-2.32,2.48-4.79,4.9-7.4,7.34l-.64.6C151.26,248.9,144.42,257.7,146.65,268.74Z"/><path class="cls-1" d="M303.35,84.91c6.14-10.39,12.51-20.62,18.93-30.84,1.3-2.06,2.86-4,4.11-6a22.76,22.76,0,0,0,2.87-5.83l-2.1-5.07c-2.66-1.12-9.07,3.06-11.26,4.32a82.28,82.28,0,0,0-15.2,11.32c-2.69,4.39-5.54,8.7-8.73,12.91q-6.86,9-14.15,17.63A125.26,125.26,0,0,0,295.38,67c4.9-5.56,9.8-12.06,17.53-13.32A.94.94,0,0,1,314,55c-7.09,13-16.89,24.2-24.11,37.11A135.94,135.94,0,0,1,271,118c1.73-1,3.46-2.08,5.21-3.07,3.5-2,7.09-3.92,10.77-5.78,1.58-2.4,3.07-4.84,4.5-6.69A173,173,0,0,0,303.35,84.91Z"/><path class="cls-1" d="M307.42,62.94c.49-.79,4.46-6.74,4.07-7.14-1-1-7.81,5-8.46,5.64-3.3,3.11-6,6.81-9.14,10.06a119.48,119.48,0,0,1-20.38,16.8q-8.14,9.3-16.8,18.11a173.74,173.74,0,0,0,17.18-14.36c.78-.78,2.39,0,2,1.14-3.94,10.55-10.71,19.37-17.63,28.13-3.3,4.17-6.38,8.45-9.36,12.78A148.78,148.78,0,0,1,264.6,122c9-8.88,17.22-18.11,23.42-29.23C293.81,82.38,301.2,73.06,307.42,62.94Z"/><path class="cls-1" d="M320.48,95.56a125.58,125.58,0,0,1,17.59-3.81c9.7-1.34,19.61-2.21,29-5.29l1.09-.36a24.65,24.65,0,0,1-16.71-12.22,1.07,1.07,0,0,1,1.84-1.08A15.73,15.73,0,0,0,360.13,78a12.59,12.59,0,0,1-2.55-8.86c.39-3.49,2.22-7.8,6.48-6.5,3.82,1.16,5.31,6.36,5.94,11a9.58,9.58,0,0,0,1.11-4c.08-3.93-1.87-8.32-3.32-11.88-2.24-5.47-9.54-23.49-17.69-20.35-.42.16-.66-.5-.3-.71,7.44-4.32,14.85,8.31,17.59,13.29,4.08,7.4,10.7,20,4.38,28a12,12,0,0,1-1.3,1.41,21.63,21.63,0,0,0,6.47-1.74,3.23,3.23,0,0,1,1.39-.3c.94-5.37-2.18-12.14-4.22-16.7-4.79-10.65-11.46-20.26-17.29-30.34-1.69-2.92-3.23-6.7-5-10.29-1.63-1.79-4-3.59-6.37-2.47-1.94.91-2.53,3.79-2.86,5.6a31.62,31.62,0,0,0-.27,7.34,41,41,0,0,0,4.75,17.3.64.64,0,0,1-1.1.65c-4.88-7.41-8.45-20-5.21-28.69,1.78-4.77,5.11-5.69,8.35-4.53-2-2.95-4.27-5.3-7.27-6.2a4.38,4.38,0,0,1-1.23,2.7c-11.07,11.87-4,42.76,7.64,52.19.51.41,0,1.24-.62,1.07-7.28-2.19-13.21-9.75-16.82-18.91-1.5,3.51-4.08,6.86-5.8,9.7-5.21,8.55-10.85,16.81-15.95,25.42a174.85,174.85,0,0,1-15,21.89c-.86,1-1.86,2.49-2.95,4a197.52,197.52,0,0,1,23-9.5C323.43,90,332.75,82,337,70.63a.24.24,0,0,1,.46.13C335.27,80.72,328.32,88.75,320.48,95.56Z"/><path class="cls-2" d="M154.45,274.26c0,.15,0,.31.07.47a7.13,7.13,0,0,0,.93,2.29c.72,1.34,1.81,2.85,1.64,4.44a.67.67,0,0,1-1,.57,15,15,0,0,1-4.19-3.63,11.58,11.58,0,0,1-1.65-2.3,11.36,11.36,0,0,1-2.78.38c-.1.79-.17,1.58-.31,2.33-.23,1.22-1.85.95-2.21,0a7.86,7.86,0,0,1-.44-2.49l-.06,0-.81-.5a12.64,12.64,0,0,1-2.66-1.36,15.61,15.61,0,0,1-2.41-2c-.37.53-.73,1.07-1.08,1.6-.56.84-2.08.32-1.7-.72s.72-1.9,1.09-2.86c-.24-.33-.47-.68-.69-1a18.35,18.35,0,0,1-3.13-5.55c-3-1.63-5.18-4.23-8.06-6a.67.67,0,0,1,.51-1.22c2.38.47,4.48,2.36,6.75,3.18a16.85,16.85,0,0,1,.87-6.29c-2.69-1.28-5.74-1.67-8.26-3.35a.92.92,0,0,1,.71-1.68c2.72.65,5.82-.17,8.51.64.1-.33.21-.66.32-1a14.29,14.29,0,0,1,1.9-5.1c-5.43-1.47-10.84-4.8-16.58-4.15-18,2-.93,23.56,4.47,29.45,8.83,9.61,22.19,21,36.1,20.73,12-.23,5.85-13.68.59-20.21A33.71,33.71,0,0,1,154.45,274.26Z"/><path class="cls-2" d="M129.63,290.91c-.63.27-1.36-.48-.79-1,1.41-1.34,2.9-2.63,4.26-4-2.4-1.72-4.59-3.46-6.45-5.06-2.59,2.34-4.45,5.45-6.7,8.09a.73.73,0,0,1-1.21-.7,54.33,54.33,0,0,1,4.81-10.2c-1.55-1.47-3.28-3.17-5.06-5-.17.71-.36,1.41-.53,2.08a102.73,102.73,0,0,1-4.43,12.63c-.4,1-2.18,1-2-.28.73-6.53,2.76-12.53,2.87-19a49.31,49.31,0,0,1-8.57-13.71c-.2,1.61-.34,3.12-.47,4.4a91.27,91.27,0,0,0,.3,23.7,26.47,26.47,0,0,0,19.23,20.65c9.2,2.19,18.7-2.63,27.39-7.66a60.61,60.61,0,0,1-16.25-7.9A66.39,66.39,0,0,1,129.63,290.91Z"/><path class="cls-1" d="M198,206.16a88.46,88.46,0,0,0,15.35-27,180.75,180.75,0,0,1,9.3-22.54c2.31-4.48,4.85-8.82,7.48-13.12.76-1.25,5-10.22,6.59-10.24-2.22,0-7.23,7.9-8.56,9.57-2.42,3.05-4.73,6.19-7.27,9.15-9.58,11.14-24.56,16-33.18,27.64-3.33,7.54-5.77,15.5-8.75,23.2,11.13-12.6,17.34-29.57,33-37.72a1,1,0,0,1,1.49,1.14C210.88,181.61,201,194.57,192.22,207c-8.63,12.12-16,24.43-21.25,38.11q1.75-2.13,3.54-4.21c2.58-4,4.91-8.2,7.38-12.24A212.13,212.13,0,0,1,198,206.16Z"/><path class="cls-3" d="M99.5,286.63a63,63,0,0,1-1.68-13.34c-1.28.18-1.67,1.57-2.11,4a44.2,44.2,0,0,0-.64,8.44c.1,5.32,1.5,8.37,5,12.35a54.61,54.61,0,0,0,14.41,12.17c2.09,1.15,5.54,3,8,2.2a4.32,4.32,0,0,0,1-.5,4.23,4.23,0,0,1,1-1.67c-.86-.17-1.73-.37-2.59-.63C111.55,306.54,102.1,297.22,99.5,286.63Z"/><path class="cls-1" d="M211.06,167.93c-14.86,8.79-21.29,25.95-33.31,37.81-.27.66-.54,1.32-.83,2-.8,1.86-1.66,3.63-2.58,5.34,6-2.28,10.84-8.42,14.54-13.17.66-.83,1.66.24,1.33,1-4,9.4-10.58,17.08-15.88,25.7-5.09,8.3-7.53,17.43-10.07,26.64l3.19-3.91a148.86,148.86,0,0,1,20.23-39.17C196.82,197.21,207.73,183.8,211.06,167.93Z"/><path class="cls-1" d="M271.43,97.61c-13.23,12.07-28.38,21.64-40.57,35-5.12,5.61-13.82,16.93-22.89,18.79a108.41,108.41,0,0,0-14.6,17.49,69,69,0,0,0-3.76,6.62c5.11-5.51,11.68-9.22,18.32-13.7C220.2,153.51,226.5,140,238,131c.35-.28,1,.08.68.53-7.8,11.39-15,23.3-20.14,36.18-3.8,9.59-6.17,19.76-11.62,28.62-6.55,10.67-15.71,19.52-22.11,30.36-1.36,2.3-2.62,4.66-3.86,7,2.31-2.46,4.71-4.86,7.25-7.17a213.05,213.05,0,0,1,18-14.36c5.48-4,7.92-6.58,8.51-13.21a90,90,0,0,1,10.16-35.26,100.65,100.65,0,0,1,14.06-19.78c3.94-6.11,8.08-12.09,12.57-17.82C258.65,117,266.4,108.08,271.43,97.61Z"/><path class="cls-1" d="M361.39,73.32c1.44,3.94,3.55,4.63,5.43,3.71a22.21,22.21,0,0,0-.72-5.16Q359.2,62.93,361.39,73.32Z"/><path class="cls-2" d="M92.42,388.43a127.29,127.29,0,0,1-37.06,23.82c-8.8,3.61-18.6,6.1-26.86,10.87a72.88,72.88,0,0,0-6.23,4.27c8.55-2.64,17.54-4,26.16-6.7,13.93-4.37,27.64-12.23,39.06-21.27,19-15,33.6-39.9,36.35-65A105,105,0,0,1,92.42,388.43Z"/><path class="cls-1" d="M144.51,268.17c-1.6-10.11,4.17-18.76,7.4-28.18-4.16,3.89-8.41,8-11.28,12.86a15.72,15.72,0,0,0-2.1,5.57C139.33,262.64,141.15,266.64,144.51,268.17Z"/><path class="cls-2" d="M87.59,285.36h0v0Z"/><path class="cls-2" d="M68.77,355.06c-11.83,8.06-21.25,16.52-30,28-6.07,8-12,16.71-15.73,26a2.77,2.77,0,0,0-.1.26c2.71-5,5.57-9.94,9.5-14.11C38.64,388.72,46.64,383.91,54,379c.41-.27.92.39.53.69-6.68,5.27-13.41,10.44-18.89,17a69.38,69.38,0,0,0-8.35,13.64c10.71-10.73,25-19.25,35.48-28.15C74.1,372.52,85.05,362.24,93.53,350c5.43-7.85,16.29-22.67,16.62-33.7a42.55,42.55,0,0,1-3.72-2.27C106.29,332.73,81.87,346.13,68.77,355.06Z"/><path class="cls-2" d="M12.61,409.51c3.83-21.66,11.93-43.5,23.14-61.24a192.61,192.61,0,0,1,28.43-35.13c8.43-8.18,17.41-15.95,22.64-26.23-11.3,13-27.32,20.79-39.69,32.71S19,347.14,18,365.23a.48.48,0,0,1-1,0c-.78-17.08,11.46-31.71,22.66-43.36,13.27-13.81,31-22.61,43.74-36.75-4.13,2.18-9,3.56-13.19,4.8a79.15,79.15,0,0,0-40,26.72C17.12,333.08,11,354.07,9.2,374.76c-.89,10.18-1.27,20.85.12,31.05,1.8-10.3,4.75-20.25,6.38-30.86.08-.55,1-.41,1,.13-.36,7.86-2.73,15.39-3.5,23.21C12.8,402,12.69,405.76,12.61,409.51Z"/><path class="cls-2" d="M114.57,318.38l-.49-.19-.26-.11c-.86,7.56-5.54,15.1-9,21.38a143,143,0,0,1-25.61,33.4,345.19,345.19,0,0,1-33,27.74C38,406.75,29,412.92,22.32,420.9c9-7.3,19.5-12.54,30-17.72,17-8.4,32.43-17.13,43.44-33.1a.2.2,0,0,1,.34.2c-12.37,26.23-42.36,33.43-64.77,49.22,5.71-2.79,11.84-4.88,17.72-7.26,14.44-5.85,27.69-13.35,39.48-23.62,19.35-16.85,34.31-42.85,33.43-69.18a19,19,0,0,1-3.84-.16A88.68,88.68,0,0,1,103,355.58a.16.16,0,0,1-.27-.16A193.22,193.22,0,0,0,114.57,318.38Z"/><path class="cls-2" d="M64.23,335.8c.34-.27.8.16.49.49-13.44,14.06-28,27.69-34.89,46.36-1.69,4.58-3.2,9.26-4.56,14,2.46-4.18,5.2-8.21,8-12.09,6.83-9.35,14.36-18.05,23.89-24.71,18.2-12.71,43-23.37,47.58-47a58,58,0,0,1-8.11-7.22c-4.28,10.47-14.06,18.76-23.56,24.28-.4.23-.86-.35-.5-.65,8.71-7.31,18.19-15.34,21.46-26.6-1-1.26-2-2.53-2.83-3.8a21.89,21.89,0,0,1-3.3-9.66c-3.52,7.16-8.93,13.3-14.7,19.15-11.06,11.2-21.6,22.36-30.54,35.4-12.89,18.78-19.43,39.42-23.8,60.93,1.1-3.73,1.86-7.64,3-10.91,2.3-6.89,4.33-14,7.85-20.44C37.61,359,51.56,345.93,64.23,335.8Z"/><path class="cls-4" d="M369.73,38.89c-3-5.37-6.15-10.64-8.77-16.19C358.5,17.48,356.62,12,353,7.36c-18-23-41.35,14-48.91,27.76-16.83,30.59-39.78,58.64-65.64,82.15-15.17,13.78-32.06,25.86-44.64,42.25-11.35,14.78-14.62,32.78-23,49-6.56,12.74-17.74,20.47-27.26,30.21-7.58-.75-14.05-6.34-21.82-6.86-6-.41-12.18,2.22-15.32,7.36-4.12,3.6-5.81,10.51-6.85,15.37a83.23,83.23,0,0,0-1.73,13.75c-3-.53-6.63,2.22-8.11,6-.11.29-.21.59-.31.89-4,5.27-11.77,6.68-18,8.07-6.55,1.45-12.67,3-18.78,5.82C38.09,296.07,26.1,307.44,17.49,321,7.51,336.65,2.77,354.84,1,373.19A155.53,155.53,0,0,0,.68,404.6c1.17,10.94,5.55,21.21,5.86,32.28.09,2.85,3.33,5.07,5.92,3.4,14.14-9.11,32-9.08,47.32-15.49,14.38-6,28.11-14.08,39.74-24.53,22.55-20.25,38.05-56,32.27-86.4a9.27,9.27,0,0,0,.87-3.28c12.05-1.35,23.63-9.75,34-14.91a4,4,0,0,0,.73-.48,15.26,15.26,0,0,0,3.09-2.06c8.73-7.62,1.91-22.2-4.77-29.64,9.1-10.84,17.27-22,27.82-31.64,6.35-5.81,13.52-10.53,20-16.13,3.42-2.95,6.22-6.14,7.32-10.6,1.27-5.17.69-10.75,1.77-16a81.31,81.31,0,0,1,8.07-22c7.3-13.59,18.11-25,30.35-34.29,21.11-16,49.11-30,75.51-34.06,14.95-2.3,47.58-2,46.85-24.1C383,62,375.64,49.62,369.73,38.89Zm-3.63,33a22.21,22.21,0,0,1,.72,5.16c-1.88.92-4,.23-5.43-3.71Q359.2,62.94,366.1,71.87ZM327.76,35.22C325,35,321.48,36.37,319,37.55a72.92,72.92,0,0,0-14.86,9.5c2.24-3.87,4.43-7.79,6.68-11.76,4.71-3.86,10.48-6.2,16.13-8.69A52,52,0,0,0,327.76,35.22Zm2.07-23.49A32.36,32.36,0,0,0,327,24.87c-5.13,2.47-10.37,4.74-14.83,8.1C316.64,25.07,322,16.56,329.83,11.73ZM226.88,134.33c-4.8,5.77-10.54,12.06-16.52,14.7,5.36-5.12,11-9.95,16.51-14.69Zm-62.15,94.1a.74.74,0,0,0-.65-.68,78.35,78.35,0,0,0,9.42-13.15c3.65-1,6.77-3.38,9.64-6,.8-.73,1.58-1.5,2.34-2.29-1.27,2-2.51,4.27-3.76,6.08-4.8,7-10.11,13.59-13.48,21.43-3.19,7.42-5.23,15.38-7.13,23.24-.37.43-.72.87-1.09,1.31a71.42,71.42,0,0,1-6.12,7A57.68,57.68,0,0,1,160.3,242C162.63,237.58,165.27,233.54,164.73,228.43Zm9.6-1.82c5.3-8.62,11.91-16.3,15.88-25.7.33-.79-.67-1.86-1.33-1-3.7,4.75-8.56,10.89-14.54,13.17.92-1.71,1.78-3.48,2.58-5.34.29-.65.56-1.31.83-2,12-11.86,18.45-29,33.31-37.81-3.33,15.87-14.24,29.28-23.38,42.24a148.86,148.86,0,0,0-20.23,39.17l-3.19,3.91C166.8,244,169.24,234.91,174.33,226.61ZM171,245.06c5.21-13.68,12.62-26,21.25-38.11,8.81-12.38,18.66-25.34,21.22-40.69a1,1,0,0,0-1.49-1.14c-15.7,8.15-21.91,25.12-33,37.72,3-7.7,5.42-15.66,8.75-23.2,8.62-11.68,23.6-16.5,33.18-27.64,2.54-3,4.85-6.1,7.27-9.15,1.33-1.67,6.34-9.54,8.56-9.57-1.55,0-5.83,9-6.59,10.24-2.63,4.3-5.17,8.64-7.48,13.12a180.75,180.75,0,0,0-9.3,22.54,88.46,88.46,0,0,1-15.35,27,212.13,212.13,0,0,0-16.06,22.45c-2.47,4-4.8,8.23-7.38,12.24Q172.73,242.94,171,245.06ZM161.5,230.6c2.27-.26,2,1.54.28,5.37-1.58,3.49-3.81,6.64-5.29,10.19a59.61,59.61,0,0,0-4.39,20.71,8.18,8.18,0,0,1-5.45,1.87c-2.23-11,4.61-19.84,6.81-30.2l.64-.6C156.71,235.5,159.18,233.08,161.5,230.6ZM151.91,240c-3.23,9.42-9,18.07-7.4,28.18-3.36-1.53-5.18-5.53-6-9.75a15.72,15.72,0,0,1,2.1-5.57C143.5,248,147.75,243.88,151.91,240Zm-37.55,28.37c-.11,6.49-2.14,12.49-2.87,19-.14,1.27,1.64,1.26,2,.28A102.73,102.73,0,0,0,118,275c.17-.67.36-1.37.53-2.08,1.78,1.86,3.51,3.56,5.06,5a54.33,54.33,0,0,0-4.81,10.2.73.73,0,0,0,1.21.7c2.25-2.64,4.11-5.75,6.7-8.09,1.86,1.6,4,3.34,6.45,5.06-1.36,1.4-2.85,2.69-4.26,4-.57.55.16,1.3.79,1a66.39,66.39,0,0,0,6.36-3.07,60.61,60.61,0,0,0,16.25,7.9c-8.69,5-18.19,9.85-27.39,7.66a26.47,26.47,0,0,1-19.23-20.65,91.27,91.27,0,0,1-.3-23.7c.13-1.28.27-2.79.47-4.4A49.31,49.31,0,0,0,114.36,268.36ZM88.53,388.62c-11.79,10.27-25,17.77-39.48,23.62-5.88,2.38-12,4.47-17.72,7.26,22.41-15.79,52.4-23,64.77-49.22a.2.2,0,0,0-.34-.2c-11,16-26.41,24.7-43.44,33.1-10.5,5.18-21,10.42-30,17.72,6.65-8,15.71-14.15,23.88-20.3a345.19,345.19,0,0,0,33-27.74,143,143,0,0,0,25.61-33.4c3.49-6.28,8.17-13.82,9-21.38l.26.11.49.19a193.22,193.22,0,0,1-11.86,37,.16.16,0,0,0,.27.16,88.68,88.68,0,0,0,15.14-36.3,19,19,0,0,0,3.84.16C122.84,345.77,107.88,371.77,88.53,388.62Zm-1-103.25h0v0Zm.36,3.84a21.89,21.89,0,0,0,3.3,9.66c.86,1.27,1.81,2.54,2.83,3.8C90.8,313.93,81.32,322,72.61,329.27c-.36.3.1.88.5.65,9.5-5.52,19.28-13.81,23.56-24.28a58,58,0,0,0,8.11,7.22c-4.59,23.6-29.38,34.26-47.58,47-9.53,6.66-17.06,15.36-23.89,24.71-2.84,3.88-5.58,7.91-8,12.09,1.36-4.72,2.87-9.4,4.56-14,6.89-18.67,21.45-32.3,34.89-46.36.31-.33-.15-.76-.49-.49C51.56,345.93,37.61,359,29.7,373.34c-3.52,6.41-5.55,13.55-7.85,20.44-1.09,3.27-1.85,7.18-3,10.91,4.37-21.51,10.91-42.15,23.8-60.93,8.94-13,19.48-24.2,30.54-35.4C79,302.51,84.42,296.37,87.94,289.21Zm22.21,27.08c-.33,11-11.19,25.85-16.62,33.7-8.48,12.25-19.43,22.53-30.72,32.16C52.37,391.05,38,399.57,27.33,410.3a69.38,69.38,0,0,1,8.35-13.64c5.48-6.58,12.21-11.75,18.89-17,.39-.3-.12-1-.53-.69-7.4,5-15.4,9.77-21.56,16.29-3.93,4.17-6.79,9.09-9.5,14.11a2.77,2.77,0,0,1,.1-.26c3.77-9.33,9.66-18,15.73-26,8.71-11.47,18.13-19.93,30-28,13.1-8.93,37.52-22.33,37.66-41A42.55,42.55,0,0,0,110.15,316.29Zm-14.44-39c.44-2.46.83-3.85,2.11-4a63,63,0,0,0,1.68,13.34c2.6,10.59,12,19.91,22.43,23.05.86.26,1.73.46,2.59.63a4.23,4.23,0,0,0-1,1.67,4.32,4.32,0,0,1-1,.5c-2.49.82-5.94-1.05-8-2.2A54.61,54.61,0,0,1,100,298.11c-3.46-4-4.86-7-5-12.35A44.2,44.2,0,0,1,95.71,277.32ZM9.2,374.76c1.81-20.69,7.92-41.68,21.05-58.12a79.15,79.15,0,0,1,40-26.72c4.23-1.24,9.06-2.62,13.19-4.8C70.74,299.26,53,308.06,39.74,321.87c-11.2,11.65-23.44,26.28-22.66,43.36a.48.48,0,0,0,1,0c1-18.09,16.82-33.79,29.1-45.61s28.39-19.68,39.69-32.71c-5.23,10.28-14.21,18-22.64,26.23a192.61,192.61,0,0,0-28.43,35.13C24.54,366,16.44,387.85,12.61,409.51c.08-3.75.19-7.49.55-11.22.77-7.82,3.14-15.35,3.5-23.21,0-.54-.88-.68-1-.13-1.63,10.61-4.58,20.56-6.38,30.86C7.93,395.61,8.31,384.94,9.2,374.76Zm78.29,24.66c-11.42,9-25.13,16.9-39.06,21.27-8.62,2.71-17.61,4.06-26.16,6.7a72.88,72.88,0,0,1,6.23-4.27c8.26-4.77,18.06-7.26,26.86-10.87a127.29,127.29,0,0,0,37.06-23.82,105,105,0,0,0,31.42-54C121.09,359.52,106.47,384.41,87.49,399.42ZM160.32,289.1c-13.91.26-27.27-11.12-36.1-20.73-5.4-5.89-22.51-27.41-4.47-29.45,5.74-.65,11.15,2.68,16.58,4.15a14.29,14.29,0,0,0-1.9,5.1c-.11.32-.22.65-.32,1-2.69-.81-5.79,0-8.51-.64a.92.92,0,0,0-.71,1.68c2.52,1.68,5.57,2.07,8.26,3.35a16.85,16.85,0,0,0-.87,6.29c-2.27-.82-4.37-2.71-6.75-3.18a.67.67,0,0,0-.51,1.22c2.88,1.78,5.06,4.38,8.06,6a18.35,18.35,0,0,0,3.13,5.55c.22.35.45.7.69,1-.37,1-.75,1.9-1.09,2.86s1.14,1.56,1.7.72c.35-.53.71-1.07,1.08-1.6a15.61,15.61,0,0,0,2.41,2,12.64,12.64,0,0,0,2.66,1.36l.81.5.06,0a7.86,7.86,0,0,0,.44,2.49c.36.95,2,1.22,2.21,0,.14-.75.21-1.54.31-2.33a11.36,11.36,0,0,0,2.78-.38,11.58,11.58,0,0,0,1.65,2.3,15,15,0,0,0,4.19,3.63.67.67,0,0,0,1-.57c.17-1.59-.92-3.1-1.64-4.44a7.13,7.13,0,0,1-.93-2.29c0-.16-.05-.32-.07-.47a33.71,33.71,0,0,0,6.46-5.37C166.17,275.42,172.3,288.87,160.32,289.1Zm64.55-125.41A90,90,0,0,0,214.71,199c-.59,6.63-3,9.21-8.51,13.21a213.05,213.05,0,0,0-18,14.36c-2.54,2.31-4.94,4.71-7.25,7.17,1.24-2.36,2.5-4.72,3.86-7,6.4-10.84,15.56-19.69,22.11-30.36,5.45-8.86,7.82-19,11.62-28.62,5.11-12.88,12.34-24.79,20.14-36.18.31-.45-.33-.81-.68-.53-11.46,9-17.76,22.53-30,30.8-6.64,4.48-13.21,8.19-18.32,13.7a69,69,0,0,1,3.76-6.62A108.41,108.41,0,0,1,208,151.37c9.07-1.86,17.77-13.18,22.89-18.79,12.19-13.33,27.34-22.9,40.57-35-5,10.47-12.78,19.36-19.93,28.48-4.49,5.73-8.63,11.71-12.57,17.82A100.65,100.65,0,0,0,224.87,163.69Zm24-29.59c3-4.33,6.06-8.61,9.36-12.78,6.92-8.76,13.69-17.58,17.63-28.13.43-1.14-1.18-1.92-2-1.14a173.74,173.74,0,0,1-17.18,14.36q8.66-8.82,16.8-18.11a119.48,119.48,0,0,0,20.38-16.8c3.15-3.25,5.84-7,9.14-10.06.65-.61,7.46-6.69,8.46-5.64.39.4-3.58,6.35-4.07,7.14C301.2,73.06,293.81,82.38,288,92.77c-6.2,11.12-14.41,20.35-23.42,29.23A148.78,148.78,0,0,0,248.86,134.1ZM271,118a135.94,135.94,0,0,0,18.89-25.84C297.06,79.21,306.86,68,314,55a.94.94,0,0,0-1-1.36c-7.73,1.26-12.63,7.76-17.53,13.32A125.26,125.26,0,0,1,277.82,83.3q7.29-8.6,14.15-17.63c3.19-4.21,6-8.52,8.73-12.91a82.28,82.28,0,0,1,15.2-11.32c2.19-1.26,8.6-5.44,11.26-4.32l2.1,5.07A22.76,22.76,0,0,1,326.39,48c-1.25,2.09-2.81,4-4.11,6-6.42,10.22-12.79,20.45-18.93,30.84a173,173,0,0,1-11.92,17.51c-1.43,1.85-2.92,4.29-4.5,6.69-3.68,1.86-7.27,3.8-10.77,5.78C274.41,115.88,272.68,116.91,271,118Zm67.12-26.21a125.58,125.58,0,0,0-17.59,3.81c7.84-6.81,14.79-14.84,16.95-24.8a.24.24,0,0,0-.46-.13C332.75,82,323.43,90,314.15,97.52a197.52,197.52,0,0,0-23,9.5c1.09-1.56,2.09-3,2.95-4a174.85,174.85,0,0,0,15-21.89c5.1-8.61,10.74-16.87,15.95-25.42,1.72-2.84,4.3-6.19,5.8-9.7,3.61,9.16,9.54,16.72,16.82,18.91.58.17,1.13-.66.62-1.07-11.68-9.43-18.71-40.32-7.64-52.19a4.38,4.38,0,0,0,1.23-2.7c3,.9,5.31,3.25,7.27,6.2-3.24-1.16-6.57-.24-8.35,4.53-3.24,8.69.33,21.28,5.21,28.69a.64.64,0,0,0,1.1-.65,41,41,0,0,1-4.75-17.3,31.62,31.62,0,0,1,.27-7.34c.33-1.81.92-4.69,2.86-5.6,2.37-1.12,4.74.68,6.37,2.47,1.78,3.59,3.32,7.37,5,10.29,5.83,10.08,12.5,19.69,17.29,30.34,2,4.56,5.16,11.33,4.22,16.7a3.23,3.23,0,0,0-1.39.3,21.63,21.63,0,0,1-6.47,1.74,12,12,0,0,0,1.3-1.41c6.32-8-.3-20.56-4.38-28-2.74-5-10.15-17.61-17.59-13.29-.36.21-.12.87.3.71,8.15-3.14,15.45,14.88,17.69,20.35,1.45,3.56,3.4,7.95,3.32,11.88a9.58,9.58,0,0,1-1.11,4c-.63-4.66-2.12-9.86-5.94-11-4.26-1.3-6.09,3-6.48,6.5A12.59,12.59,0,0,0,360.13,78a15.73,15.73,0,0,1-6.87-5.15,1.07,1.07,0,0,0-1.84,1.08A24.65,24.65,0,0,0,368.13,86.1l-1.09.36C357.68,89.54,347.77,90.41,338.07,91.75Z"/></g></g></svg>